<svg width="320" height="152" viewBox="0 0 320 152" fill="none" xmlns="http://www.w3.org/2000/svg">
<g filter="url(#filter0_bd_1511_129)">
<rect x="32" width="256" height="80" rx="40" fill="url(#paint0_linear_1511_129)"/>
<g clip-path="url(#clip0_1511_129)">
<rect x="48" y="16" width="48" height="48" rx="24" fill="#8BC5E5"/>
<rect x="48" y="3" width="48" height="71.9912"/>
</g>
<path d="M119.904 31.728H115.248L114.448 34H112.544L116.528 22.864H118.64L122.624 34H120.704L119.904 31.728ZM119.392 30.24L117.584 25.072L115.76 30.24H119.392ZM128.804 25.04C129.498 25.04 130.116 25.184 130.66 25.472C131.215 25.76 131.647 26.1867 131.956 26.752C132.266 27.3173 132.42 28 132.42 28.8V34H130.612V29.072C130.612 28.2827 130.415 27.68 130.02 27.264C129.626 26.8373 129.087 26.624 128.404 26.624C127.722 26.624 127.178 26.8373 126.772 27.264C126.378 27.68 126.18 28.2827 126.18 29.072V34H124.356V25.184H126.18V26.192C126.479 25.8293 126.858 25.5467 127.316 25.344C127.786 25.1413 128.282 25.04 128.804 25.04ZM136.875 26.672V31.552C136.875 31.8827 136.95 32.1227 137.099 32.272C137.259 32.4107 137.526 32.48 137.899 32.48H139.019V34H137.579C136.758 34 136.128 33.808 135.691 33.424C135.254 33.04 135.035 32.416 135.035 31.552V26.672H133.995V25.184H135.035V22.992H136.875V25.184H139.019V26.672H136.875ZM144.524 34.144C143.692 34.144 142.94 33.9573 142.268 33.584C141.596 33.2 141.068 32.6667 140.684 31.984C140.3 31.2907 140.108 30.4907 140.108 29.584C140.108 28.688 140.305 27.8933 140.7 27.2C141.095 26.5067 141.633 25.9733 142.316 25.6C142.999 25.2267 143.761 25.04 144.604 25.04C145.447 25.04 146.209 25.2267 146.892 25.6C147.575 25.9733 148.113 26.5067 148.508 27.2C148.903 27.8933 149.1 28.688 149.1 29.584C149.1 30.48 148.897 31.2747 148.492 31.968C148.087 32.6613 147.532 33.2 146.828 33.584C146.135 33.9573 145.367 34.144 144.524 34.144ZM144.524 32.56C144.993 32.56 145.431 32.448 145.836 32.224C146.252 32 146.588 31.664 146.844 31.216C147.1 30.768 147.228 30.224 147.228 29.584C147.228 28.944 147.105 28.4053 146.86 27.968C146.615 27.52 146.289 27.184 145.884 26.96C145.479 26.736 145.041 26.624 144.572 26.624C144.103 26.624 143.665 26.736 143.26 26.96C142.865 27.184 142.551 27.52 142.316 27.968C142.081 28.4053 141.964 28.944 141.964 29.584C141.964 30.5333 142.204 31.2693 142.684 31.792C143.175 32.304 143.788 32.56 144.524 32.56ZM155.351 25.04C156.044 25.04 156.663 25.184 157.207 25.472C157.762 25.76 158.194 26.1867 158.503 26.752C158.812 27.3173 158.967 28 158.967 28.8V34H157.159V29.072C157.159 28.2827 156.962 27.68 156.567 27.264C156.172 26.8373 155.634 26.624 154.951 26.624C154.268 26.624 153.724 26.8373 153.319 27.264C152.924 27.68 152.727 28.2827 152.727 29.072V34H150.903V25.184H152.727V26.192C153.026 25.8293 153.404 25.5467 153.863 25.344C154.332 25.1413 154.828 25.04 155.351 25.04ZM169.374 29.376C169.374 29.7067 169.352 30.0053 169.31 30.272H162.574C162.627 30.976 162.888 31.5413 163.358 31.968C163.827 32.3947 164.403 32.608 165.086 32.608C166.067 32.608 166.76 32.1973 167.166 31.376H169.134C168.867 32.1867 168.382 32.8533 167.678 33.376C166.984 33.888 166.12 34.144 165.086 34.144C164.243 34.144 163.486 33.9573 162.814 33.584C162.152 33.2 161.63 32.6667 161.246 31.984C160.872 31.2907 160.686 30.4907 160.686 29.584C160.686 28.6773 160.867 27.8827 161.23 27.2C161.603 26.5067 162.12 25.9733 162.782 25.6C163.454 25.2267 164.222 25.04 165.086 25.04C165.918 25.04 166.659 25.2213 167.31 25.584C167.96 25.9467 168.467 26.4587 168.83 27.12C169.192 27.7707 169.374 28.5227 169.374 29.376ZM167.47 28.8C167.459 28.128 167.219 27.5893 166.75 27.184C166.28 26.7787 165.699 26.576 165.006 26.576C164.376 26.576 163.838 26.7787 163.39 27.184C162.942 27.5787 162.675 28.1173 162.59 28.8H167.47Z" fill="#23262F"/>
<path d="M184.08 22.88V34H182.256V29.136H177.024V34H175.2V22.88H177.024V27.648H182.256V22.88H184.08ZM194.561 29.376C194.561 29.7067 194.54 30.0053 194.497 30.272H187.761C187.815 30.976 188.076 31.5413 188.545 31.968C189.015 32.3947 189.591 32.608 190.273 32.608C191.255 32.608 191.948 32.1973 192.353 31.376H194.321C194.055 32.1867 193.569 32.8533 192.865 33.376C192.172 33.888 191.308 34.144 190.273 34.144C189.431 34.144 188.673 33.9573 188.001 33.584C187.34 33.2 186.817 32.6667 186.433 31.984C186.06 31.2907 185.873 30.4907 185.873 29.584C185.873 28.6773 186.055 27.8827 186.417 27.2C186.791 26.5067 187.308 25.9733 187.969 25.6C188.641 25.2267 189.409 25.04 190.273 25.04C191.105 25.04 191.847 25.2213 192.497 25.584C193.148 25.9467 193.655 26.4587 194.017 27.12C194.38 27.7707 194.561 28.5227 194.561 29.376ZM192.657 28.8C192.647 28.128 192.407 27.5893 191.937 27.184C191.468 26.7787 190.887 26.576 190.193 26.576C189.564 26.576 189.025 26.7787 188.577 27.184C188.129 27.5787 187.863 28.1173 187.777 28.8H192.657ZM198.18 22.16V34H196.356V22.16H198.18ZM202.399 22.16V34H200.575V22.16H202.399ZM212.874 29.376C212.874 29.7067 212.852 30.0053 212.81 30.272H206.074C206.127 30.976 206.388 31.5413 206.858 31.968C207.327 32.3947 207.903 32.608 208.586 32.608C209.567 32.608 210.26 32.1973 210.666 31.376H212.634C212.367 32.1867 211.882 32.8533 211.178 33.376C210.484 33.888 209.62 34.144 208.586 34.144C207.743 34.144 206.986 33.9573 206.314 33.584C205.652 33.2 205.13 32.6667 204.746 31.984C204.372 31.2907 204.186 30.4907 204.186 29.584C204.186 28.6773 204.367 27.8827 204.73 27.2C205.103 26.5067 205.62 25.9733 206.282 25.6C206.954 25.2267 207.722 25.04 208.586 25.04C209.418 25.04 210.159 25.2213 210.81 25.584C211.46 25.9467 211.967 26.4587 212.33 27.12C212.692 27.7707 212.874 28.5227 212.874 29.376ZM210.97 28.8C210.959 28.128 210.719 27.5893 210.25 27.184C209.78 26.7787 209.199 26.576 208.506 26.576C207.876 26.576 207.338 26.7787 206.89 27.184C206.442 27.5787 206.175 28.1173 206.09 28.8H210.97ZM216.493 26.464C216.759 26.016 217.111 25.6693 217.549 25.424C217.997 25.168 218.525 25.04 219.133 25.04V26.928H218.669C217.954 26.928 217.41 27.1093 217.037 27.472C216.674 27.8347 216.493 28.464 216.493 29.36V34H214.669V25.184H216.493V26.464Z" fill="#23262F"/>
<path fill-rule="evenodd" clip-rule="evenodd" d="M119.268 48.7715L120.35 50.9004L122.778 51.2431C123.916 51.4036 124.436 52.8077 123.559 53.6374L121.815 55.2863L122.225 57.6096C122.435 58.7998 121.172 59.5991 120.177 59.0923L118 57.9815L115.823 59.0919C114.827 59.6004 113.565 58.7984 113.775 57.6096L114.185 55.2863L112.441 53.6377C111.563 52.8073 112.085 51.4036 113.221 51.2431L115.65 50.9004L116.733 48.7715C117.255 47.7429 118.745 47.7428 119.268 48.7715Z" fill="#FFD166"/>
<path d="M128.564 56.296V54.976L132.488 49.36H134.444V54.832H135.5V56.296H134.444V58H132.764V56.296H128.564ZM132.872 51.16L130.412 54.832H132.872V51.16ZM137.506 58.084C137.202 58.084 136.95 57.992 136.75 57.808C136.558 57.616 136.462 57.38 136.462 57.1C136.462 56.82 136.558 56.588 136.75 56.404C136.95 56.212 137.202 56.116 137.506 56.116C137.802 56.116 138.046 56.212 138.238 56.404C138.43 56.588 138.526 56.82 138.526 57.1C138.526 57.38 138.43 57.616 138.238 57.808C138.046 57.992 137.802 58.084 137.506 58.084ZM141.151 53.368C140.351 52.952 139.951 52.308 139.951 51.436C139.951 51.004 140.059 50.612 140.275 50.26C140.499 49.9 140.831 49.616 141.271 49.408C141.719 49.192 142.263 49.084 142.903 49.084C143.543 49.084 144.083 49.192 144.523 49.408C144.971 49.616 145.303 49.9 145.519 50.26C145.743 50.612 145.855 51.004 145.855 51.436C145.855 51.876 145.747 52.264 145.531 52.6C145.315 52.928 145.027 53.184 144.667 53.368C145.107 53.56 145.451 53.84 145.699 54.208C145.947 54.576 146.071 55.012 146.071 55.516C146.071 56.06 145.931 56.536 145.651 56.944C145.379 57.344 145.003 57.652 144.523 57.868C144.043 58.084 143.503 58.192 142.903 58.192C142.303 58.192 141.763 58.084 141.283 57.868C140.811 57.652 140.435 57.344 140.155 56.944C139.883 56.536 139.747 56.06 139.747 55.516C139.747 55.012 139.871 54.576 140.119 54.208C140.367 53.832 140.711 53.552 141.151 53.368ZM144.223 51.676C144.223 51.284 144.103 50.98 143.863 50.764C143.631 50.548 143.311 50.44 142.903 50.44C142.503 50.44 142.183 50.548 141.943 50.764C141.711 50.98 141.595 51.288 141.595 51.688C141.595 52.048 141.715 52.336 141.955 52.552C142.203 52.768 142.519 52.876 142.903 52.876C143.287 52.876 143.603 52.768 143.851 52.552C144.099 52.328 144.223 52.036 144.223 51.676ZM142.903 54.1C142.447 54.1 142.075 54.216 141.787 54.448C141.507 54.68 141.367 55.012 141.367 55.444C141.367 55.844 141.503 56.172 141.775 56.428C142.055 56.676 142.431 56.8 142.903 56.8C143.375 56.8 143.747 56.672 144.019 56.416C144.291 56.16 144.427 55.836 144.427 55.444C144.427 55.02 144.287 54.692 144.007 54.46C143.727 54.22 143.359 54.1 142.903 54.1Z" fill="#23262F"/>
</g>
<defs>
<filter id="filter0_bd_1511_129" x="0" y="-32" width="320" height="184" filterUnits="userSpaceOnUse" color-interpolation-filters="sRGB">
<feFlood flood-opacity="0" result="BackgroundImageFix"/>
<feGaussianBlur in="BackgroundImageFix" stdDeviation="16"/>
<feComposite in2="SourceAlpha" operator="in" result="effect1_backgroundBlur_1511_129"/>
<feColorMatrix in="SourceAlpha" type="matrix" values="0 0 0 0 0 0 0 0 0 0 0 0 0 0 0 0 0 0 127 0" result="hardAlpha"/>
<feMorphology radius="32" operator="erode" in="SourceAlpha" result="effect2_dropShadow_1511_129"/>
<feOffset dy="40"/>
<feGaussianBlur stdDeviation="32"/>
<feColorMatrix type="matrix" values="0 0 0 0 0.0583333 0 0 0 0 0.0583333 0 0 0 0 0.0583333 0 0 0 0.1 0"/>
<feBlend mode="multiply" in2="effect1_backgroundBlur_1511_129" result="effect2_dropShadow_1511_129"/>
<feBlend mode="normal" in="SourceGraphic" in2="effect2_dropShadow_1511_129" result="shape"/>
</filter>
<linearGradient id="paint0_linear_1511_129" x1="136" y1="80" x2="293.035" y2="23.5393" gradientUnits="userSpaceOnUse">
<stop stop-color="#FCFCFD"/>
<stop offset="1" stop-color="#FCFCFD" stop-opacity="0.83"/>
</linearGradient>
<clipPath id="clip0_1511_129">
<rect x="48" y="16" width="48" height="48" rx="24" fill="white"/>
</clipPath>
</defs>
</svg>
