<svg width="32" height="32" viewBox="0 0 32 32" fill="none" xmlns="http://www.w3.org/2000/svg">
<path fill-rule="evenodd" clip-rule="evenodd" d="M16 17C12.134 17 9 20.134 9 24V26C9 26.5523 8.55228 27 8 27C7.44772 27 7 26.5523 7 26V24C7 19.0294 11.0294 15 16 15C20.9706 15 25 19.0294 25 24V26C25 26.5523 24.5523 27 24 27C23.4477 27 23 26.5523 23 26V24C23 20.134 19.866 17 16 17Z" fill="#B1B5C4"/>
<path fill-rule="evenodd" clip-rule="evenodd" d="M16 15C18.2091 15 20 13.2091 20 11C20 8.79086 18.2091 7 16 7C13.7909 7 12 8.79086 12 11C12 13.2091 13.7909 15 16 15ZM16 17C19.3137 17 22 14.3137 22 11C22 7.68629 19.3137 5 16 5C12.6863 5 10 7.68629 10 11C10 14.3137 12.6863 17 16 17Z" fill="#B1B5C4"/>
</svg>
