<svg width="24" height="24" viewBox="0 0 24 24" fill="none" xmlns="http://www.w3.org/2000/svg">
<path fill-rule="evenodd" clip-rule="evenodd" d="M18.2528 2.47824C20.3134 1.61966 22.3806 3.68688 21.522 5.74747L15.5985 19.9639C14.4401 22.7442 10.3653 22.2743 9.8701 19.3033L9.13109 14.8692L4.69701 14.1302C1.72602 13.635 1.25608 9.56021 4.03636 8.40176L18.2528 2.47824ZM19.6759 4.97824C19.8476 4.56612 19.4341 4.15268 19.022 4.32439L4.80559 10.2479C3.87883 10.6341 4.03548 11.9923 5.0258 12.1574L9.45989 12.8964C10.3028 13.0369 10.9634 13.6974 11.1039 14.5404L11.8429 18.9745C12.0079 19.9648 13.3662 20.1214 13.7524 19.1947L19.6759 4.97824Z" fill="#B1B5C4"/>
</svg>
